<svg xmlns="http://www.w3.org/2000/svg" viewBox="0 0 430 800" preserveAspectRatio="xMidYMid slice">
  <defs>
    <linearGradient id="space" x1="0" y1="0" x2="0" y2="1">
      <stop offset="0" stop-color="#020717"/>
      <stop offset=".55" stop-color="#071b35"/>
      <stop offset="1" stop-color="#030711"/>
    </linearGradient>
    <radialGradient id="planet" cx="32%" cy="28%">
      <stop offset="0" stop-color="#b5f5ff"/>
      <stop offset=".18" stop-color="#50bfe2"/>
      <stop offset=".68" stop-color="#184b91"/>
      <stop offset="1" stop-color="#061632"/>
    </radialGradient>
    <radialGradient id="nebula">
      <stop offset="0" stop-color="#5e8cff" stop-opacity=".32"/>
      <stop offset=".48" stop-color="#714eb6" stop-opacity=".12"/>
      <stop offset="1" stop-color="#0b1337" stop-opacity="0"/>
    </radialGradient>
    <linearGradient id="deck" x1="0" y1="0" x2="0" y2="1">
      <stop offset="0" stop-color="#16395c"/>
      <stop offset="1" stop-color="#040915"/>
    </linearGradient>
  </defs>
  <rect width="430" height="800" fill="url(#space)"/>
  <ellipse cx="120" cy="250" rx="210" ry="176" fill="url(#nebula)"/>
  <circle cx="333" cy="143" r="72" fill="url(#planet)"/>
  <path d="M258 158c42 12 98 13 151-3" fill="none" stroke="#a6e7ff" stroke-opacity=".42" stroke-width="2"/>
  <path d="M258 165c48 18 101 18 151 2" fill="none" stroke="#569fe6" stroke-opacity=".28" stroke-width="8"/>
  <g fill="#d8f5ff">
    <circle cx="36" cy="93" r="1.2"/><circle cx="82" cy="184" r=".8"/><circle cx="141" cy="79" r="1"/>
    <circle cx="185" cy="219" r="1.3"/><circle cx="221" cy="117" r=".8"/><circle cx="398" cy="66" r="1"/>
    <circle cx="376" cy="286" r="1.1"/><circle cx="57" cy="323" r=".9"/><circle cx="263" cy="324" r="1.2"/>
  </g>
  <g fill="#6fd9ff" opacity=".72">
    <circle cx="106" cy="129" r="1"/><circle cx="157" cy="279" r="1"/><circle cx="232" cy="60" r="1"/>
    <circle cx="304" cy="273" r="1"/><circle cx="412" cy="227" r="1"/>
  </g>
  <path d="M0 0h31l62 356-26 36L0 237ZM430 0h-31l-62 356 26 36 67-155Z" fill="#050b18"/>
  <path d="M31 0 93 356M399 0l-62 356" stroke="#57bdea" stroke-opacity=".28" stroke-width="3"/>
  <path d="M0 374 72 340h286l72 34v38l-89-29H89L0 412Z" fill="#0a1a2c" stroke="#50c7f4" stroke-opacity=".24"/>
  <path d="M-25 586 74 493h282l99 93v214H-25Z" fill="url(#deck)"/>
  <path d="M74 493h282M30 612h370M13 690h404" stroke="#5cccef" stroke-opacity=".22"/>
  <path d="m74 493 68 307M356 493l-68 307M174 493l-21 307M256 493l21 307" stroke="#5cccef" stroke-opacity=".16"/>
  <ellipse cx="215" cy="651" rx="130" ry="46" fill="#07121f" stroke="#73ddff" stroke-opacity=".24" stroke-width="2"/>
  <ellipse cx="215" cy="651" rx="94" ry="30" fill="none" stroke="#73ddff" stroke-opacity=".13"/>
  <path d="M121 651h188M215 621v60" stroke="#73ddff" stroke-opacity=".12"/>
  <path d="M41 535h64v5H41zm284 0h64v5h-64z" fill="#67d8ff" opacity=".54"/>
  <path d="M52 552h42v2H52zm284 0h42v2h-42z" fill="#f4d76f" opacity=".42"/>
</svg>
